<svg xmlns="http://www.w3.org/2000/svg" xmlns:xlink="http://www.w3.org/1999/xlink" version="1.1" xml:space="preserve" viewBox="0 0 1080 1080">
<desc>Created with Fabric.js 5.2.4</desc>
<defs>
</defs>
<rect x="0" y="0" width="100%" height="100%" fill="transparent"/>
<g transform="matrix(1 0 0 1 540 540)" id="288fcd21-a312-48d8-8cff-8c62537c988b">
<rect style="stroke: none; stroke-width: 1; stroke-dasharray: none; stroke-linecap: butt; stroke-dashoffset: 0; stroke-linejoin: miter; stroke-miterlimit: 4; fill: rgb(255,255,255); fill-rule: nonzero; opacity: 1; visibility: hidden;" vector-effect="non-scaling-stroke" x="-540" y="-540" rx="0" ry="0" width="1080" height="1080"/>
</g>
<g transform="matrix(1 0 0 1 540 540)" id="d8b59d92-afd0-4b1c-81bc-23403ab45613">
</g>
<g transform="matrix(11.95 0 0 11.95 311.11 214.54)">
<path style="stroke: none; stroke-width: 1; stroke-dasharray: none; stroke-linecap: butt; stroke-dashoffset: 0; stroke-linejoin: miter; stroke-miterlimit: 4; fill: rgb(81,159,202); fill-rule: nonzero; opacity: 1;" vector-effect="non-scaling-stroke" transform=" translate(-21.45, -14.49)" d="M 38.67 6.28 C 38.63938941122231 5.282079574127085 38.33118627378092 4.312451725996886 37.78 3.479999999999998 C 37.26608437376232 2.749864163695968 36.57883724276571 2.1588316310388813 35.78 1.7599999999999993 C 34.08530007189151 0.9844094494170483 32.21373480785706 0.677086002001799 30.359999999999996 0.8700000000000017 C 26.665786994958488 1.2406555195405398 23.084331522818907 2.352845395504115 19.829999999999995 4.140000000000003 L 19.83 4.14 C 18.83 4.71 17.759999999999998 5.33 16.729999999999997 6 L 16.4 6.22 L 16.07 6.4399999999999995 L 15.620000000000001 6.749999999999999 C 14.430000000000001 7.569999999999999 13.3 8.43 12.240000000000002 9.319999999999999 C 7.240000000000002 13.639999999999999 4.240000000000002 18.589999999999996 4.240000000000002 22.369999999999997 C 4.239905751429656 22.8649094922055 4.2969500857812175 23.358175206892554 4.41 23.839999999999996 C 4.544375762416387 24.4443945603408 4.792079856317749 25.01784650375628 5.14 25.529999999999994 C 6.290000000000003 27.24 8.430000000000003 28.099999999999998 11.140000000000002 28.169999999999998 C 12.106931822660986 24.353712963391416 13.834822562102032 20.77208117474688 16.21999999999999 17.640000000000008 C 15.051005716499144 17.819681843428114 13.873633303422581 17.37152073135381 13.120000000000003 16.46 C 12.780371537247309 15.93279060467058 12.641927779633917 15.300919095563312 12.730000000000002 14.680000000000001 C 12.930000000000001 12.810000000000002 14.610000000000003 10.470000000000002 17.220000000000002 8.680000000000001 C 19.660000000000004 7.030000000000001 22.270000000000003 6.320000000000002 24.07 6.6800000000000015 C 24.839873622665927 6.764980583494732 25.539388990392748 7.167292530736583 26 7.79 C 26.301903329445523 8.259024929165346 26.44235786344358 8.813820338457667 26.4 9.370000000000001 C 30.23852293940908 7.519649583054721 34.41293951322499 6.4683906414825 38.67 6.280000000000001" stroke-linecap="round"/>
</g>
<g transform="matrix(11.95 0 0 11.95 127.41 524.64)">
<path style="stroke: none; stroke-width: 1; stroke-dasharray: none; stroke-linecap: butt; stroke-dashoffset: 0; stroke-linejoin: miter; stroke-miterlimit: 4; fill: rgb(79,160,201); fill-rule: nonzero; opacity: 1;" vector-effect="non-scaling-stroke" transform=" translate(-6.07, -40.48)" d="M 12.15 48.63 C 9.343045322290774 48.69285416308695 6.550818776498694 48.20710185645889 3.929999999999996 47.2 L 3.35 47 L 3.35 47 C 2.215931051371868 46.481656132675276 1.1592041173612486 45.808581652413736 0.21000000000000307 45 C 0.06857195863353863 43.59111019434044 -0.001517549061783946 42.1759696580157 6.2450045135165055e-15 40.760000000000026 C -0.004237988068605463 37.92458307579572 0.2839531779023651 35.09628837719685 0.8599999999999923 32.32000000000002 C 1.1147489184709902 33.179936211495686 1.4991693447652346 33.99598659012031 2.0000000000000013 34.74 C 3.0378796663528655 36.245733225899706 4.479882341201984 37.42775945696593 6.159999999999997 38.150000000000006 L 6.55 38.32000000000001 L 6.7 38.38000000000001 C 7.833325344948979 38.816977615409066 9.01517737186203 39.11579815630469 10.219999999999995 39.27000000000001 C 10.477519991606835 42.45639338523036 11.122269498667144 45.59954723214935 12.140000000000002 48.63" stroke-linecap="round"/>
</g>
<g transform="matrix(11.95 0 0 11.95 300.37 892.72)">
<path style="stroke: none; stroke-width: 1; stroke-dasharray: none; stroke-linecap: butt; stroke-dashoffset: 0; stroke-linejoin: miter; stroke-miterlimit: 4; fill: rgb(79,160,201); fill-rule: nonzero; opacity: 1;" vector-effect="non-scaling-stroke" transform=" translate(-20.56, -71.31)" d="M 34 74.13 L 34 77.42999999999999 C 23 78 13.17 74.14 7.71 66.06 C 7.5 65.76 7.31 65.45 7.12 65.14 C 12.68 72.57 22.79 75.59 33.96 74.14" stroke-linecap="round"/>
</g>
<g transform="matrix(11.95 0 0 11.95 818.42 808.29)">
<path style="stroke: none; stroke-width: 1; stroke-dasharray: none; stroke-linecap: butt; stroke-dashoffset: 0; stroke-linejoin: miter; stroke-miterlimit: 4; fill: rgb(48,90,164); fill-rule: nonzero; opacity: 1;" vector-effect="non-scaling-stroke" transform=" translate(-63.96, -64.24)" d="M 63.87 59.46 L 69.4 59.46 C 66.35504140237593 62.98423013994263 62.85816659817195 66.09106890829308 59 68.7 L 58.52 69.02 L 58.52 63.94 C 60.41060303549731 62.559375782053756 62.21404295897317 61.063188586281186 63.919999999999995 59.459999999999994" stroke-linecap="round"/>
</g>
<g transform="matrix(11.95 0 0 11.95 978.81 385.13)">
<path style="stroke: none; stroke-width: 1; stroke-dasharray: none; stroke-linecap: butt; stroke-dashoffset: 0; stroke-linejoin: miter; stroke-miterlimit: 4; fill: rgb(45,89,163); fill-rule: nonzero; opacity: 1;" vector-effect="non-scaling-stroke" transform=" translate(-77.4, -28.79)" d="M 79.49 38.29 L 77.1 38.29 C 78.86999999999999 31.45 78.3 24.759999999999998 74.99 19.29 C 75.19999999999999 19.57 75.41 19.86 75.61 20.16 C 79.1089386276431 25.508473761959564 80.49204834703514 31.967738740151244 79.49000000000001 38.27999999999997" stroke-linecap="round"/>
</g>
<g transform="matrix(11.95 0 0 11.95 659.07 105.11)">
<path style="stroke: none; stroke-width: 1; stroke-dasharray: none; stroke-linecap: butt; stroke-dashoffset: 0; stroke-linejoin: miter; stroke-miterlimit: 4; fill: rgb(82,160,201); fill-rule: nonzero; opacity: 1;" vector-effect="non-scaling-stroke" transform=" translate(-50.61, -5.33)" d="M 58.41 10.66 C 55.40090055157404 9.141891832013469 52.221900416444704 7.987112479865121 48.93999999999998 7.220000000000002 C 48.69168456805887 6.06780287454262 48.22309762054422 4.9744333303417765 47.56 4.0000000000000036 C 46.40018839548738 2.3025028070852582 44.739727737176516 1.00909134692732 42.81 0.3000000000000007 C 46.53611022679721 -0.2274385532396222 50.3268086686413 -0.07838517393564887 53.999999999999986 0.7400000000000013 C 54.89962277927557 1.4612066467564477 55.685149809593284 2.314160889976976 56.33 3.2699999999999987 C 57.323109822174146 4.754731595088257 57.972230448616514 6.442445223838408 58.23 8.209999999999996 C 58.23 8.39 58.23 8.58 58.3 8.770000000000001 C 58.33037553220606 8.975530819254795 58.35040079822555 9.182458568122794 58.36 9.39 C 58.36 9.81 58.36 10.23 58.36 10.66" stroke-linecap="round"/>
</g>
<g transform="matrix(11.95 0 0 11.95 229.22 773.16)">
<path style="stroke: none; stroke-width: 1; stroke-dasharray: none; stroke-linecap: butt; stroke-dashoffset: 0; stroke-linejoin: miter; stroke-miterlimit: 4; fill: rgb(79,160,201); fill-rule: nonzero; opacity: 1;" vector-effect="non-scaling-stroke" transform=" translate(-14.6, -61.3)" d="M 25.57 68.34 C 16.64 69.11 9.14 66.73 5.309999999999999 61.06 L 4.909999999999998 60.440000000000005 C 4.216893632669827 58.39274589498013 3.7867811647204195 56.26570533082407 3.630000000000001 54.110000000000014 C 7 56.65 11.49 58 16.64 58 C 18.53754214937105 60.9773851817262 20.76864123363543 63.72851487961612 23.290000000000006 66.20000000000002 Q 24.4 67.31 25.57 68.3" stroke-linecap="round"/>
</g>
<g transform="matrix(11.95 0 0 11.95 682.67 635.15)">
<path style="stroke: none; stroke-width: 1; stroke-dasharray: none; stroke-linecap: butt; stroke-dashoffset: 0; stroke-linejoin: miter; stroke-miterlimit: 4; fill: rgb(45,89,163); fill-rule: nonzero; opacity: 1;" vector-effect="non-scaling-stroke" transform=" translate(-52.59, -49.73)" d="M 58.65 40.1 L 58.65 53.35 C 56.659421937765316 55.062300992284335 54.56908885880846 56.6550947281668 52.39 58.12000000000001 C 51.76 58.550000000000004 51.12 58.970000000000006 50.480000000000004 59.370000000000005 L 46.53 59.370000000000005 L 46.53 47.61 C 49.68121772589949 45.38574169728434 52.61735379448088 42.871445018259664 55.30000000000001 40.09999999999997 Z" stroke-linecap="round"/>
</g>
<g transform="matrix(11.95 0 0 11.95 895.65 251.41)">
<path style="stroke: none; stroke-width: 1; stroke-dasharray: none; stroke-linecap: butt; stroke-dashoffset: 0; stroke-linejoin: miter; stroke-miterlimit: 4; fill: rgb(82,159,199); fill-rule: nonzero; opacity: 1;" vector-effect="non-scaling-stroke" transform=" translate(-70.43, -17.59)" d="M 75.23 25.23 C 73.62455506948517 22.964373054794773 71.82078190998756 20.84602721070946 69.83999999999997 18.89999999999998 C 68.84 17.959999999999997 67.9 17.07 66.84 16.229999999999997 C 66.83823632945716 14.838343859272833 66.67038256572563 13.45187177085031 66.34 12.099999999999996 C 66.27000000000001 11.819999999999999 66.19 11.549999999999997 66.11 11.279999999999998 C 65.97 10.829999999999998 65.81 10.379999999999997 65.63 9.949999999999998 C 68.45835774186644 11.086202432061963 70.89190363741962 13.0260861602315 72.63 15.529999999999996 C 73.0569471477083 16.168789200570778 73.43790877105228 16.837142925735673 73.77 17.52999999999999 C 73.85 17.709999999999997 73.94 17.9 74.00999999999999 18.089999999999996 C 74.91522061965847 20.346123230797332 75.31789667304021 22.772417077868703 75.19 25.199999999999996" stroke-linecap="round"/>
</g>
<g transform="matrix(11.95 0 0 11.95 768.84 509.48)">
<polygon style="stroke: none; stroke-width: 1; stroke-dasharray: none; stroke-linecap: butt; stroke-dashoffset: 0; stroke-linejoin: miter; stroke-miterlimit: 4; fill: rgb(28,74,153); fill-rule: nonzero; opacity: 1;" vector-effect="non-scaling-stroke" points="1.2,17.91 1.2,2.17 -2.47,-1.45 -18.16,-1.45 -18.16,-17.91 -18.13,-17.91 18.16,17.91 1.2,17.91 "/>
</g>
<g transform="matrix(11.95 0 0 11.95 769.33 509.48)">
<polygon style="stroke: none; stroke-width: 1; stroke-dasharray: none; stroke-linecap: butt; stroke-dashoffset: 0; stroke-linejoin: miter; stroke-miterlimit: 4; fill: rgb(81,159,202); fill-rule: nonzero; opacity: 1;" vector-effect="non-scaling-stroke" points="18.17,1.44 18.17,17.91 18.12,17.91 -18.17,-17.91 -1.19,-17.91 -1.19,-2.18 2.49,1.44 18.17,1.44 "/>
</g>
<g transform="matrix(11.95 0 0 11.95 858.26 883.19)">
<path style="stroke: none; stroke-width: 1; stroke-dasharray: none; stroke-linecap: butt; stroke-dashoffset: 0; stroke-linejoin: miter; stroke-miterlimit: 4; fill: rgb(47,89,164); fill-rule: nonzero; opacity: 1;" vector-effect="non-scaling-stroke" transform=" translate(-67.3, -70.51)" d="M 69.89 70.71 C 68.28501127457086 72.25975745278156 66.55220655292737 73.67142461983474 64.71000000000001 74.92999999999999 L 64.71000000000001 66.1 Z" stroke-linecap="round"/>
</g>
<g transform="matrix(11.95 0 0 11.95 883.53 857.74)">
<path style="stroke: none; stroke-width: 1; stroke-dasharray: none; stroke-linecap: butt; stroke-dashoffset: 0; stroke-linejoin: miter; stroke-miterlimit: 4; fill: rgb(83,159,202); fill-rule: nonzero; opacity: 1;" vector-effect="non-scaling-stroke" transform=" translate(-69.41, -68.39)" d="M 74.12 66.06 C 72.82509112037387 67.71091795622277 71.41133014780046 69.2650523586971 69.89 70.71000000000001 L 64.71 66.1 L 64.71 66.1 Z" stroke-linecap="round"/>
</g>
<g transform="matrix(11.95 0 0 11.95 574.95 806.49)">
<path style="stroke: none; stroke-width: 1; stroke-dasharray: none; stroke-linecap: butt; stroke-dashoffset: 0; stroke-linejoin: miter; stroke-miterlimit: 4; fill: rgb(45,88,162); fill-rule: nonzero; opacity: 1;" vector-effect="non-scaling-stroke" transform=" translate(-43.56, -64.08)" d="M 56.12 71.27 L 56.12 71.27 L 47.78 71.27 L 45.17 74 L 45.17 82 L 36.65 73.7 C 37.51 73.53 38.379999999999995 73.34 39.26 73.12 L 44 73.12 L 46.53 70.51 L 46.53 62.74 L 43.15 59.370000000000005 L 31 59.370000000000005 L 31 46.16 L 31.41 46.16 L 50.92 66 L 51.92 67 Z" stroke-linecap="round"/>
</g>
<g transform="matrix(11.95 0 0 11.95 577.2 742.4)">
<polygon style="stroke: none; stroke-width: 1; stroke-dasharray: none; stroke-linecap: butt; stroke-dashoffset: 0; stroke-linejoin: miter; stroke-miterlimit: 4; fill: rgb(84,161,202); fill-rule: nonzero; opacity: 1;" vector-effect="non-scaling-stroke" points="12.37,3.01 12.37,12.55 -12.37,-12.55 0.43,-12.55 0.43,-0.37 3.8,3.01 12.37,3.01 "/>
</g>
<g transform="matrix(11.95 0 0 11.95 541.23 970.74)">
<path style="stroke: none; stroke-width: 1; stroke-dasharray: none; stroke-linecap: butt; stroke-dashoffset: 0; stroke-linejoin: miter; stroke-miterlimit: 4; fill: rgb(83,160,205); fill-rule: nonzero; opacity: 1;" vector-effect="non-scaling-stroke" transform=" translate(-40.74, -77.85)" d="M 45.17 82 L 45.17 82 L 36.31 82 L 36.31 73.76 L 36.650000000000006 73.7 Z" stroke-linecap="round"/>
</g>
<g transform="matrix(11.95 0 0 11.95 352.31 246.97)">
<path style="stroke: none; stroke-width: 1; stroke-dasharray: none; stroke-linecap: butt; stroke-dashoffset: 0; stroke-linejoin: miter; stroke-miterlimit: 4; fill: rgb(45,89,163); fill-rule: nonzero; opacity: 1;" vector-effect="non-scaling-stroke" transform=" translate(-24.91, -17.21)" d="M 37.67 10.86 C 37.67 10.91 37.620000000000005 10.959999999999999 37.59 11.02 C 37.415030503962825 11.443312080483127 37.21809620863695 11.857207887608698 37 12.26 C 34.49765358605278 16.423277250519387 31.077317072985874 19.95990520503057 27 22.6 C 23.220897286092896 25.24177853920745 18.92769301974294 27.057872089972946 14.400000000000002 27.93 C 13.84 28.02 13.3 28.09 12.77 28.13 L 12.57 28.13 C 12.09699105046598 28.154782386084317 11.62300894953402 28.154782386084317 11.15 28.13 C 12.116931822660984 24.313712963391417 13.84482256210203 20.73208117474688 16.22999999999999 17.60000000000001 C 18.25897748173136 17.41570427442836 20.202253574631698 16.694310485056832 21.859999999999996 15.510000000000005 C 24.56 13.680000000000001 26.27 11.23 26.36 9.330000000000002 C 30.21374325587511 7.488227306531078 34.402166718162725 6.450478195241294 38.67 6.279999999999998 C 38.692777029762404 7.863200445090662 38.3505991488313 9.430375139755125 37.67 10.86" stroke-linecap="round"/>
</g>
<g transform="matrix(11.95 0 0 11.95 680.34 197.5)">
<path style="stroke: none; stroke-width: 1; stroke-dasharray: none; stroke-linecap: butt; stroke-dashoffset: 0; stroke-linejoin: miter; stroke-miterlimit: 4; fill: rgb(45,89,163); fill-rule: nonzero; opacity: 1;" vector-effect="non-scaling-stroke" transform=" translate(-52.39, -13.07)" d="M 58.41 10.66 C 58.31479465097188 13.513254459103319 57.669657403052206 16.321299217153726 56.51 18.93 L 46.35 18.93 C 48.23992869703997 15.896887822666464 49.215537889384 12.383305962694335 49.16 8.809999999999993 L 49.16 8.66 C 49.16 8.58 49.16 8.5 49.16 8.42 C 49.12266552110349 8.016314354297403 49.059199091875605 7.615473748647566 48.97 7.219999999999995 C 52.25190041644471 7.987112479865117 55.43090055157403 9.141891832013474 58.43999999999998 10.660000000000004" stroke-linecap="round"/>
</g>
<g transform="matrix(11.95 0 0 11.95 868.31 366.86)">
<path style="stroke: none; stroke-width: 1; stroke-dasharray: none; stroke-linecap: butt; stroke-dashoffset: 0; stroke-linejoin: miter; stroke-miterlimit: 4; fill: rgb(45,89,163); fill-rule: nonzero; opacity: 1;" vector-effect="non-scaling-stroke" transform=" translate(-68.14, -27.26)" d="M 75.23 25.23 C 74.916125815714 29.832530463331864 73.54748775719705 34.301133724389736 71.23 38.29 L 61 38.29 L 61 33.07 C 64.83 27.36 66.92 21.48 66.89 16.23 C 67.89 17.07 68.89 17.96 69.89 18.9 C 71.87078190998758 20.84602721070948 73.67455506948515 22.964373054794752 75.28 25.22999999999998" stroke-linecap="round"/>
</g>
<g transform="matrix(11.95 0 0 11.95 350.52 496.81)">
<path style="stroke: none; stroke-width: 1; stroke-dasharray: none; stroke-linecap: butt; stroke-dashoffset: 0; stroke-linejoin: miter; stroke-miterlimit: 4; fill: rgb(45,89,163); fill-rule: nonzero; opacity: 1;" vector-effect="non-scaling-stroke" transform=" translate(-24.76, -38.14)" d="M 39.29 27.67 L 39.29 38.82 L 38.37 39.45 C 35.962562888418624 41.08476841565857 33.439216293851864 42.54195929675939 30.819999999999997 43.81000000000001 C 30.089999999999996 44.17 29.349999999999998 44.5 28.619999999999997 44.81 C 23.438162429903343 47.163124686974015 17.83880733283907 48.45842176771567 12.149999999999999 48.62000000000001 C 11.132269498667139 45.58954723214935 10.487519991606831 42.44639338523036 10.229999999999997 39.260000000000005 C 16.71 40.13 25.419999999999998 37.720000000000006 33.51 32.260000000000005 C 35.55349788698509 30.883182942262 37.4860691163132 29.34849402485436 39.290000000000006 27.66999999999998" stroke-linecap="round"/>
</g>
<g transform="matrix(11.95 0 0 11.95 417.96 785.38)">
<path style="stroke: none; stroke-width: 1; stroke-dasharray: none; stroke-linecap: butt; stroke-dashoffset: 0; stroke-linejoin: miter; stroke-miterlimit: 4; fill: rgb(45,88,162); fill-rule: nonzero; opacity: 1;" vector-effect="non-scaling-stroke" transform=" translate(-30.41, -62.32)" d="M 44.18 61.72 L 44.18 62.89 C 38.3584633468888 65.8201059648053 32.05248827824548 67.66683160285504 25.569999999999997 68.34 Q 24.4 67.34 23.29 66.24000000000001 C 20.76354359805514 63.75846644386846 18.53209711302331 60.993486137603455 16.640000000000008 58.000000000000014 C 20.701385693813087 58.01988776211623 24.74395047614116 57.44719108461975 28.639999999999983 56.300000000000004 L 28.64 61.68 Z" stroke-linecap="round"/>
</g>
</svg>