<svg xmlns="http://www.w3.org/2000/svg" viewBox="0 0 364.84 81.98"><defs><style>.cls-1{fill:#519fca;}.cls-2{fill:#4fa0c9;}.cls-3{fill:#305aa4;}.cls-4{fill:#2d59a3;}.cls-5{fill:#52a0c9;}.cls-6{fill:#529fc7;}.cls-7{fill:#1c4a99;}.cls-8{fill:#2f59a4;}.cls-9{fill:#539fca;}.cls-10{fill:#2d58a2;}.cls-11{fill:#54a1ca;}.cls-12{fill:#53a0cd;}.cls-13{fill:#24a1c8;}.cls-14{fill:#2b56a1;}</style></defs><title>Asset 2DM</title><g id="Layer_2" data-name="Layer 2"><g id="Layer_1-2" data-name="Layer 1"><path class="cls-1" d="M38.67,6.28a5.37,5.37,0,0,0-.89-2.8,5.39,5.39,0,0,0-2-1.72A10.43,10.43,0,0,0,30.36.87,27.6,27.6,0,0,0,19.83,4.14h0c-1,.57-2.07,1.19-3.1,1.86l-.33.22-.33.22-.45.31c-1.19.82-2.32,1.68-3.38,2.57-5,4.32-8,9.27-8,13.05a6.43,6.43,0,0,0,.17,1.47,4.9,4.9,0,0,0,.73,1.69c1.15,1.71,3.29,2.57,6,2.64a29.23,29.23,0,0,1,5.08-10.53,3.36,3.36,0,0,1-3.1-1.18,2.61,2.61,0,0,1-.39-1.78c.2-1.87,1.88-4.21,4.49-6,2.44-1.65,5.05-2.36,6.85-2A2.78,2.78,0,0,1,26,7.79a2.56,2.56,0,0,1,.4,1.58A31.46,31.46,0,0,1,38.67,6.28"></path><path class="cls-2" d="M12.15,48.63A21.57,21.57,0,0,1,3.93,47.2L3.35,47h0A13.49,13.49,0,0,1,.21,45,42,42,0,0,1,0,40.76a41.24,41.24,0,0,1,.86-8.44A8.82,8.82,0,0,0,2,34.74a9.71,9.71,0,0,0,4.16,3.41l.39.17.15.06a15.12,15.12,0,0,0,3.52.89,39.36,39.36,0,0,0,1.92,9.36"></path><path class="cls-2" d="M34,74.13v3.3C23,78,13.17,74.14,7.71,66.06c-.21-.3-.4-.61-.59-.92,5.56,7.43,15.67,10.45,26.84,9"></path><path class="cls-3" d="M63.87,59.46H69.4A52.92,52.92,0,0,1,59,68.7l-.48.32V63.94a56.8,56.8,0,0,0,5.4-4.48"></path><path class="cls-4" d="M79.49,38.29H77.1c1.77-6.84,1.2-13.53-2.11-19,.21.28.42.57.62.87a25.73,25.73,0,0,1,3.88,18.12"></path><path class="cls-5" d="M58.41,10.66a42.5,42.5,0,0,0-9.47-3.44A9.15,9.15,0,0,0,47.56,4,9.88,9.88,0,0,0,42.81.3,31.29,31.29,0,0,1,54,.74a11.45,11.45,0,0,1,2.33,2.53,12,12,0,0,1,1.9,4.94c0,.18,0,.37.07.56a6.2,6.2,0,0,1,.06.62c0,.42,0,.84,0,1.27"></path><path class="cls-2" d="M25.57,68.34c-8.93.77-16.43-1.61-20.26-7.28l-.4-.62a25.51,25.51,0,0,1-1.28-6.33C7,56.65,11.49,58,16.64,58a46.41,46.41,0,0,0,6.65,8.2q1.11,1.11,2.28,2.1"></path><path class="cls-4" d="M58.65,40.1V53.35a66.44,66.44,0,0,1-6.26,4.77c-.63.43-1.27.85-1.91,1.25H46.53V47.61A61.82,61.82,0,0,0,55.3,40.1Z"></path><path class="cls-6" d="M75.23,25.23a46.83,46.83,0,0,0-5.39-6.33c-1-.94-1.94-1.83-3-2.67a17.49,17.49,0,0,0-.5-4.13c-.07-.28-.15-.55-.23-.82-.14-.45-.3-.9-.48-1.33a15.6,15.6,0,0,1,7,5.58,16.2,16.2,0,0,1,1.14,2c.08.18.17.37.24.56a16.73,16.73,0,0,1,1.18,7.11"></path><polygon class="cls-7" points="61 57.11 61 41.37 57.33 37.75 41.64 37.75 41.64 21.29 41.67 21.29 77.96 57.11 61 57.11"></polygon><polygon class="cls-1" points="78.01 40.64 78.01 57.11 77.96 57.11 41.67 21.29 58.65 21.29 58.65 37.02 62.33 40.64 78.01 40.64"></polygon><path class="cls-8" d="M69.89,70.71a39.69,39.69,0,0,1-5.18,4.22V66.1Z"></path><path class="cls-9" d="M74.12,66.06a43.09,43.09,0,0,1-4.23,4.65L64.71,66.1v0Z"></path><path class="cls-10" d="M56.12,71.27v0H47.78L45.17,74v8L36.65,73.7c.86-.17,1.73-.36,2.61-.58H44l2.53-2.61V62.74l-3.38-3.37H31V46.16h.41L50.92,66l1,1Z"></path><polygon class="cls-11" points="56.12 61.72 56.12 71.27 31.38 46.16 44.18 46.16 44.18 58.34 47.55 61.72 56.12 61.72"></polygon><path class="cls-12" d="M45.17,82v0H36.31V73.76l.34-.06Z"></path><path class="cls-4" d="M37.67,10.86c0,.05-.05.1-.08.16A13.17,13.17,0,0,1,37,12.26a31.89,31.89,0,0,1-10,10.34A32.83,32.83,0,0,1,14.4,27.93c-.56.09-1.1.16-1.63.2l-.2,0a13.57,13.57,0,0,1-1.42,0,29.23,29.23,0,0,1,5.08-10.53,11.47,11.47,0,0,0,5.63-2.09c2.7-1.83,4.41-4.28,4.5-6.18A31.46,31.46,0,0,1,38.67,6.28a10.31,10.31,0,0,1-1,4.58"></path><path class="cls-4" d="M58.41,10.66a22.18,22.18,0,0,1-1.9,8.27H46.35A18.59,18.59,0,0,0,49.16,8.81V8.66c0-.08,0-.16,0-.24a9.38,9.38,0,0,0-.19-1.2,42.5,42.5,0,0,1,9.47,3.44"></path><path class="cls-4" d="M75.23,25.23a30.07,30.07,0,0,1-4,13.06H61V33.07c3.83-5.71,5.92-11.59,5.89-16.84,1,.84,2,1.73,3,2.67a46.83,46.83,0,0,1,5.39,6.33"></path><path class="cls-4" d="M39.29,27.67V38.82l-.92.63a59.91,59.91,0,0,1-7.55,4.36c-.73.36-1.47.69-2.2,1a42.77,42.77,0,0,1-16.47,3.81,39.36,39.36,0,0,1-1.92-9.36c6.48.87,15.19-1.54,23.28-7a47.21,47.21,0,0,0,5.78-4.59"></path><path class="cls-10" d="M44.18,61.72v1.17a53.74,53.74,0,0,1-18.61,5.45q-1.17-1-2.28-2.1A46,46,0,0,1,16.64,58a41.76,41.76,0,0,0,12-1.7v5.38Z"></path><path class="cls-13" d="M119.1,38.25h.13l4-22.34h6.23l-7,32.92H116.8l-5.55-21.68h-.13l-5.53,21.68H100l-7-32.92h6.24l4,22.32h.12l5.43-22.32h4.89Z"></path><path class="cls-13" d="M157.09,35.33a14.52,14.52,0,0,1-3.51,10,12.43,12.43,0,0,1-18.19,0,14.62,14.62,0,0,1-3.48-10V29.41a14.68,14.68,0,0,1,3.47-10,11.45,11.45,0,0,1,9-4,11.66,11.66,0,0,1,9.14,4,14.52,14.52,0,0,1,3.53,10Zm-6-6a10.53,10.53,0,0,0-1.77-6.3,5.63,5.63,0,0,0-4.87-2.47,5.47,5.47,0,0,0-4.77,2.47,10.8,10.8,0,0,0-1.71,6.3v6a10.88,10.88,0,0,0,1.72,6.38,5.53,5.53,0,0,0,4.81,2.46,5.62,5.62,0,0,0,4.85-2.46,10.81,10.81,0,0,0,1.74-6.38Z"></path><path class="cls-13" d="M167.92,35.67V48.83h-6V15.91h10.45q5.16,0,8.07,2.57a9,9,0,0,1,2.91,7.15A7.71,7.71,0,0,1,182.07,30a8.71,8.71,0,0,1-3.6,3,6.51,6.51,0,0,1,3.84,2.87,9.76,9.76,0,0,1,1.18,5v2.42a12.83,12.83,0,0,0,.34,2.88A4.13,4.13,0,0,0,185,48.36v.47h-6.24a3.79,3.79,0,0,1-1.07-2.39,22.92,22.92,0,0,1-.24-3.24V40.87A5.53,5.53,0,0,0,176.22,37a4.45,4.45,0,0,0-3.49-1.37Zm0-5.08h4.29A5.34,5.34,0,0,0,176,29.41a4.55,4.55,0,0,0,1.25-3.48,5,5,0,0,0-1.26-3.6A4.79,4.79,0,0,0,172.32,21h-4.4Z"></path><path class="cls-13" d="M195,43.77h13.51v5.06H188.91V15.91H195Z"></path><path class="cls-13" d="M212.5,48.83V15.91H223a11.91,11.91,0,0,1,9.12,3.86,13.94,13.94,0,0,1,3.59,9.89v5.45A13.91,13.91,0,0,1,232.14,45,12,12,0,0,1,223,48.83ZM218.55,21V43.77H223a5.73,5.73,0,0,0,4.81-2.43,10.08,10.08,0,0,0,1.82-6.23v-5.5a10,10,0,0,0-1.82-6.19A5.73,5.73,0,0,0,223,21Z"></path><path class="cls-13" d="M257.61,48.83h-6.05V15.91h6.05Z"></path><path class="cls-13" d="M284,21h-8.62V48.83h-6.06V21h-8.49V15.91H284Z"></path><path class="cls-13" d="M304,43.77h13.51v5.06H297.92V15.91H304Z"></path><path class="cls-13" d="M338.29,21h-8.62V48.83h-6.05V21h-8.5V15.91h23.17Z"></path><path class="cls-13" d="M341.61,48.83V15.91h10.52a11.91,11.91,0,0,1,9.12,3.86,13.94,13.94,0,0,1,3.59,9.89v5.45A13.91,13.91,0,0,1,361.25,45a12,12,0,0,1-9.12,3.83ZM347.66,21V43.77h4.47a5.72,5.72,0,0,0,4.81-2.43,10.08,10.08,0,0,0,1.82-6.23v-5.5a10,10,0,0,0-1.82-6.19A5.71,5.71,0,0,0,352.13,21Z"></path><path class="cls-14" d="M101.77,65.58l2.49-5h1.92l-3.58,6.67v3.58h-1.71V67.15l-3.52-6.56h1.92Z"></path><path class="cls-14" d="M115.37,66.64a4.3,4.3,0,0,1-1.18,3.11A4.08,4.08,0,0,1,111.1,71a3.94,3.94,0,0,1-3-1.24,4.37,4.37,0,0,1-1.16-3.11V64.8a4.41,4.41,0,0,1,1.16-3.12,3.93,3.93,0,0,1,3-1.23,4.09,4.09,0,0,1,3.08,1.23,4.35,4.35,0,0,1,1.19,3.12Zm-1.72-1.86a3.16,3.16,0,0,0-.69-2.1,2.28,2.28,0,0,0-1.86-.83,2.15,2.15,0,0,0-1.79.83,3.26,3.26,0,0,0-.66,2.1v1.86a3.29,3.29,0,0,0,.66,2.12,2.18,2.18,0,0,0,1.79.83,2.31,2.31,0,0,0,1.87-.83,3.21,3.21,0,0,0,.68-2.12Z"></path><path class="cls-14" d="M125.07,60.59v6.75A3.33,3.33,0,0,1,123.94,70,4.33,4.33,0,0,1,121,71a4.22,4.22,0,0,1-2.86-1,3.38,3.38,0,0,1-1.11-2.68V60.59h1.72v6.75A2.09,2.09,0,0,0,121,69.62a2.37,2.37,0,0,0,1.68-.59,2.19,2.19,0,0,0,.64-1.69V60.59Z"></path><path class="cls-14" d="M128.8,66.59v4.25h-1.72V60.59h3.55a4,4,0,0,1,2.66.78,2.69,2.69,0,0,1,1,2.21,2.27,2.27,0,0,1-.42,1.37,2.81,2.81,0,0,1-1.21.91,2.22,2.22,0,0,1,1.26.9,2.8,2.8,0,0,1,.39,1.53v.85a3.22,3.22,0,0,0,.11.88,1.26,1.26,0,0,0,.38.66v.16H133a1.19,1.19,0,0,1-.37-.73,6.37,6.37,0,0,1-.07-1v-.82a1.74,1.74,0,0,0-.46-1.26,1.65,1.65,0,0,0-1.24-.46Zm0-1.37h1.74a2.31,2.31,0,0,0,1.51-.4,1.48,1.48,0,0,0,.47-1.2,1.57,1.57,0,0,0-.46-1.21,2,2,0,0,0-1.43-.44H128.8Z"></path><path class="cls-14" d="M139.92,70.84V60.59h3.41a4.34,4.34,0,0,1,3.19,1.22,4.22,4.22,0,0,1,1.23,3.13V66.5a4.2,4.2,0,0,1-1.23,3.13,4.34,4.34,0,0,1-3.19,1.21ZM141.64,62v7.5h1.69a2.48,2.48,0,0,0,2-.83A3.17,3.17,0,0,0,146,66.5V64.93a3.16,3.16,0,0,0-.73-2.13,2.48,2.48,0,0,0-2-.83Z"></path><path class="cls-14" d="M151.5,70.84h-1.72V60.59h1.72Z"></path><path class="cls-14" d="M161.45,69.45a3.66,3.66,0,0,1-1.36,1.07,5.37,5.37,0,0,1-2.4.47,4,4,0,0,1-4.19-4.2V64.65a4.16,4.16,0,0,1,1.14-3,3.92,3.92,0,0,1,2.93-1.17,4.07,4.07,0,0,1,2.81.9,3,3,0,0,1,1,2.35l0,0H159.7a1.85,1.85,0,0,0-.54-1.39,2.39,2.39,0,0,0-3.28.26,3.07,3.07,0,0,0-.66,2v2.16a3,3,0,0,0,.69,2,2.2,2.2,0,0,0,1.78.8,3.85,3.85,0,0,0,1.31-.18,2,2,0,0,0,.73-.46V66.86h-2.16V65.58h3.88Z"></path><path class="cls-14" d="M165.41,70.84h-1.72V60.59h1.72Z"></path><path class="cls-14" d="M174.72,62h-3.19v8.87h-1.72V62h-3.13V60.59h8Z"></path><path class="cls-14" d="M180.63,68.45H177l-.8,2.39h-1.77L178,60.59h1.64l3.55,10.25h-1.78ZM177.45,67h2.71l-1.32-4h0Z"></path><path class="cls-14" d="M186.19,69.47H191v1.37h-6.55V60.59h1.72Z"></path><path class="cls-14" d="M200.22,60.59h1.72v7.17a3.08,3.08,0,0,1-.91,2.35,3.19,3.19,0,0,1-2.34.88,3.53,3.53,0,0,1-2.41-.78,2.73,2.73,0,0,1-.86-2.26l0,0h1.66a1.76,1.76,0,0,0,.42,1.29,1.58,1.58,0,0,0,1.17.42,1.38,1.38,0,0,0,1.1-.5,2,2,0,0,0,.43-1.36Z"></path><path class="cls-14" d="M212.19,66.64A4.31,4.31,0,0,1,211,69.75,4.06,4.06,0,0,1,207.92,71a3.92,3.92,0,0,1-3-1.24,4.37,4.37,0,0,1-1.16-3.11V64.8a4.37,4.37,0,0,1,1.16-3.12,3.93,3.93,0,0,1,3-1.23A4.09,4.09,0,0,1,211,61.68a4.35,4.35,0,0,1,1.19,3.12Zm-1.72-1.86a3.16,3.16,0,0,0-.69-2.1,2.3,2.3,0,0,0-1.86-.83,2.19,2.19,0,0,0-1.8.83,3.31,3.31,0,0,0-.65,2.1v1.86a3.29,3.29,0,0,0,.66,2.12,2.17,2.17,0,0,0,1.79.83,2.28,2.28,0,0,0,1.86-.83,3.16,3.16,0,0,0,.69-2.12Z"></path><path class="cls-14" d="M221.89,60.59v6.75A3.36,3.36,0,0,1,220.76,70a4.33,4.33,0,0,1-2.91,1A4.2,4.2,0,0,1,215,70a3.38,3.38,0,0,1-1.11-2.68V60.59h1.72v6.75a2.09,2.09,0,0,0,2.25,2.28,2.37,2.37,0,0,0,1.68-.59,2.19,2.19,0,0,0,.64-1.69V60.59Z"></path><path class="cls-14" d="M225.62,66.59v4.25H223.9V60.59h3.55a4.06,4.06,0,0,1,2.66.78,2.68,2.68,0,0,1,.94,2.21,2.34,2.34,0,0,1-.41,1.37,2.87,2.87,0,0,1-1.21.91,2.25,2.25,0,0,1,1.26.9,2.8,2.8,0,0,1,.38,1.53v.85a3.22,3.22,0,0,0,.12.88,1.25,1.25,0,0,0,.37.66v.16h-1.77a1.13,1.13,0,0,1-.36-.73,6.37,6.37,0,0,1-.08-1v-.82a1.74,1.74,0,0,0-.45-1.26,1.68,1.68,0,0,0-1.25-.46Zm0-1.37h1.74a2.26,2.26,0,0,0,1.5-.4,1.46,1.46,0,0,0,.48-1.2,1.57,1.57,0,0,0-.47-1.21,2,2,0,0,0-1.42-.44h-1.83Z"></path><path class="cls-14" d="M241.18,70.84h-1.72l-4.57-7.38h0v7.37h-1.72V60.59h1.72L239.42,68l0,0V60.59h1.72Z"></path><path class="cls-14" d="M249.1,66.23h-4v3.24h4.75v1.37h-6.47V60.59h6.43V62h-4.71v2.89h4Z"></path><path class="cls-14" d="M254.88,65.58l2.49-5h1.91l-3.57,6.67v3.58H254V67.15l-3.51-6.56h1.92Z"></path><path class="cls-14" d="M269.62,68.21a1.35,1.35,0,0,0-.45-1,4.25,4.25,0,0,0-1.62-.73,7.08,7.08,0,0,1-2.57-1.2,2.4,2.4,0,0,1-.9-1.94,2.5,2.5,0,0,1,1-2,3.89,3.89,0,0,1,2.55-.8,3.85,3.85,0,0,1,2.67.89,2.72,2.72,0,0,1,1,2.2l0,0h-1.65a1.64,1.64,0,0,0-.54-1.29,2.11,2.11,0,0,0-1.44-.48,2,2,0,0,0-1.35.41,1.34,1.34,0,0,0-.47,1.06,1.18,1.18,0,0,0,.52,1A5.53,5.53,0,0,0,268,65a5.94,5.94,0,0,1,2.47,1.23,2.54,2.54,0,0,1,.85,2,2.43,2.43,0,0,1-1,2,4.31,4.31,0,0,1-2.64.76,4.63,4.63,0,0,1-2.74-.83,2.65,2.65,0,0,1-1.14-2.35l0,0h1.66a1.59,1.59,0,0,0,.64,1.39,2.56,2.56,0,0,0,1.56.47,2.35,2.35,0,0,0,1.42-.38A1.27,1.27,0,0,0,269.62,68.21Z"></path><path class="cls-14" d="M280.31,62h-3.19v8.87H275.4V62h-3.13V60.59h8Z"></path><path class="cls-14" d="M286.22,68.45h-3.66l-.79,2.39H280l3.6-10.25h1.64l3.55,10.25H287ZM283,67h2.71l-1.32-4h-.05Z"></path><path class="cls-14" d="M291.78,66.59v4.25h-1.73V60.59h3.55a4.09,4.09,0,0,1,2.67.78,2.71,2.71,0,0,1,.94,2.21,2.27,2.27,0,0,1-.42,1.37,2.81,2.81,0,0,1-1.21.91,2.22,2.22,0,0,1,1.26.9,2.8,2.8,0,0,1,.39,1.53v.85a3.66,3.66,0,0,0,.11.88,1.26,1.26,0,0,0,.38.66v.16H296a1.19,1.19,0,0,1-.37-.73,6.37,6.37,0,0,1-.07-1v-.82a1.7,1.7,0,0,0-.46-1.26,1.65,1.65,0,0,0-1.24-.46Zm0-1.37h1.73a2.31,2.31,0,0,0,1.51-.4,1.48,1.48,0,0,0,.47-1.2,1.57,1.57,0,0,0-.46-1.21A2,2,0,0,0,293.6,62h-1.82Z"></path><path class="cls-14" d="M306.14,62H303v8.87h-1.72V62h-3.14V60.59h8.05Z"></path><path class="cls-14" d="M312.78,68.21a1.36,1.36,0,0,0-.46-1,4.25,4.25,0,0,0-1.62-.73,7.16,7.16,0,0,1-2.57-1.2,2.4,2.4,0,0,1-.9-1.94,2.5,2.5,0,0,1,1-2,3.89,3.89,0,0,1,2.55-.8,3.81,3.81,0,0,1,2.67.89,2.72,2.72,0,0,1,1,2.2v0h-1.66a1.64,1.64,0,0,0-.54-1.29,2.09,2.09,0,0,0-1.44-.48,2,2,0,0,0-1.35.41,1.34,1.34,0,0,0-.47,1.06,1.18,1.18,0,0,0,.52,1,5.65,5.65,0,0,0,1.71.73,6,6,0,0,1,2.48,1.23,2.58,2.58,0,0,1,.85,2,2.44,2.44,0,0,1-1,2,4.31,4.31,0,0,1-2.64.76,4.63,4.63,0,0,1-2.74-.83A2.62,2.62,0,0,1,307,67.81v0h1.66a1.59,1.59,0,0,0,.64,1.39,2.58,2.58,0,0,0,1.56.47,2.35,2.35,0,0,0,1.42-.38A1.25,1.25,0,0,0,312.78,68.21Z"></path><path class="cls-14" d="M327.92,70.84H326.2V66.47h-4.61v4.37h-1.72V60.59h1.72V65.1h4.61V60.59h1.72Z"></path><path class="cls-14" d="M335.84,66.23h-4v3.24h4.76v1.37h-6.48V60.59h6.43V62h-4.71v2.89h4Z"></path><path class="cls-14" d="M339.84,66.59v4.25h-1.72V60.59h3.54a4.09,4.09,0,0,1,2.67.78,2.71,2.71,0,0,1,.94,2.21,2.34,2.34,0,0,1-.41,1.37,2.87,2.87,0,0,1-1.21.91,2.19,2.19,0,0,1,1.25.9,2.8,2.8,0,0,1,.39,1.53v.85a3.66,3.66,0,0,0,.11.88,1.26,1.26,0,0,0,.38.66v.16H344a1.13,1.13,0,0,1-.36-.73,6.37,6.37,0,0,1-.08-1v-.82a1.7,1.7,0,0,0-.46-1.26,1.65,1.65,0,0,0-1.24-.46Zm0-1.37h1.73a2.31,2.31,0,0,0,1.51-.4,1.46,1.46,0,0,0,.48-1.2,1.57,1.57,0,0,0-.47-1.21,2,2,0,0,0-1.43-.44h-1.82Z"></path><path class="cls-14" d="M353.1,66.23h-4v3.24h4.76v1.37h-6.48V60.59h6.43V62h-4.71v2.89h4Z"></path></g></g></svg>